<svg xmlns="http://www.w3.org/2000/svg" width="48" height="48" viewBox="0 0 48 48" fill="none">
  <defs>
    <linearGradient id="bg" x1="0" y1="0" x2="48" y2="48" gradientUnits="userSpaceOnUse">
      <stop offset="0%" stop-color="#7c3aed"/>
      <stop offset="100%" stop-color="#4f46e5"/>
    </linearGradient>
    <linearGradient id="cross" x1="16" y1="12" x2="32" y2="36" gradientUnits="userSpaceOnUse">
      <stop offset="0%" stop-color="#ffffff"/>
      <stop offset="100%" stop-color="#e0e7ff"/>
    </linearGradient>
  </defs>
  <rect width="48" height="48" rx="12" fill="url(#bg)"/>
  <path d="M21 12h6a2 2 0 0 1 2 2v6h6a2 2 0 0 1 2 2v4a2 2 0 0 1-2 2h-6v6a2 2 0 0 1-2 2h-4a2 2 0 0 1-2-2v-6h-6a2 2 0 0 1-2-2v-4a2 2 0 0 1 2-2h6v-6a2 2 0 0 1 2-2z" fill="url(#cross)"/>
  <path d="M21 12h6a2 2 0 0 1 2 2v6h6a2 2 0 0 1 2 2v4a2 2 0 0 1-2 2h-6v6a2 2 0 0 1-2 2h-4a2 2 0 0 1-2-2v-6h-6a2 2 0 0 1-2-2v-4a2 2 0 0 1 2-2h6v-6a2 2 0 0 1 2-2z" fill="white" opacity="0.15" filter="blur(1)"/>
</svg>
